<?xml version="1.0" encoding="UTF-8" standalone="no"?>
<svg
   width="384"
   height="384"
   viewBox="0 0 384 384"
   fill="none"
   version="1.1"
   id="svg33"
   sodipodi:docname="org.hectabit.PageBurger.svg"
   inkscape:version="1.3.2 (091e20ef0f, 2023-11-25)"
   xmlns:inkscape="http://www.inkscape.org/namespaces/inkscape"
   xmlns:sodipodi="http://sodipodi.sourceforge.net/DTD/sodipodi-0.dtd"
   xmlns="http://www.w3.org/2000/svg"
   xmlns:svg="http://www.w3.org/2000/svg">
  <sodipodi:namedview
     id="namedview33"
     pagecolor="#ffffff"
     bordercolor="#000000"
     borderopacity="0.25"
     inkscape:showpageshadow="2"
     inkscape:pageopacity="0.0"
     inkscape:pagecheckerboard="0"
     inkscape:deskcolor="#d1d1d1"
     inkscape:zoom="0.61458333"
     inkscape:cx="191.18644"
     inkscape:cy="191.18644"
     inkscape:window-width="1432"
     inkscape:window-height="831"
     inkscape:window-x="0"
     inkscape:window-y="0"
     inkscape:window-maximized="1"
     inkscape:current-layer="svg33" />
  <g
     clip-path="url(#clip0_5_50)"
     id="g18"
     transform="matrix(0.59873694,0,0,0.59873695,77.220137,77.042507)">
    <path
       d="M 384,277.333 C 384,300.896 364.896,320 341.333,320 H 85.3333 C 61.7707,320 42.6667,300.896 42.6667,277.333 V 67.3387 C 42.6667,43.776 104.437,0 128,0 H 326.667 C 359.669,0 384,24.6613 384,57.3333 Z"
       fill="#226699"
       id="path1" />
    <path
       d="m 362.667,320 c 0,23.563 -19.104,42.667 -42.667,42.667 H 106.667 C 83.104,362.667 64,343.563 64,320 V 64 C 64,20.064 63.776,21.3333 117.333,21.3333 H 320 c 23.563,0 42.667,19.104 42.667,42.6667 z"
       fill="url(#paint0_linear_5_50)"
       id="path2"
       style="fill:url(#paint0_linear_5_50)" />
    <path
       d="m 341.333,330.667 c 0,17.674 -14.325,32 -32,32 H 74.6667 c -17.6747,0 -32,-14.326 -32,-32 V 74.6667 c 0,-17.6747 14.3253,-32 32,-32 H 309.333 c 17.675,0 32,14.3253 32,32 z"
       fill="#e1e8ed"
       id="path3" />
    <path
       d="m 91.1147,351.776 c 0,7.488 -7.1147,13.557 -15.8934,13.557 -8.768,0 -15.8826,-6.069 -15.8826,-13.557 0,-7.477 7.1146,-13.557 15.8826,-13.557 8.7787,0 15.8934,6.069 15.8934,13.557 z"
       fill="#662113"
       id="path4" />
    <path
       d="m 73.536,344.224 c -5.12,0.587 -8.448,4 -10.848,7.776 -3.2747,5.173 -10.7413,10.667 -20.0213,10.667 -11.776,0 -21.3334,-7.158 -21.3334,-16 0,-8.843 9.5574,-16 21.3334,-16 V 309.376 C 19.552,309.6 0.885345,326.176 0.885345,346.667 0.885345,367.296 19.7867,384 43.104,384 62.88,384 78.8053,372.853 84.7147,356.597 87.6693,348.501 79.712,343.541 73.536,344.224 Z"
       fill="url(#paint1_linear_5_50)"
       id="path5"
       style="fill:url(#paint1_linear_5_50)" />
    <path
       d="M 91.1147,266.443 C 91.1147,273.931 84,280 75.2213,280 c -8.768,0 -15.8826,-6.069 -15.8826,-13.557 0,-7.478 7.1146,-13.558 15.8826,-13.558 8.7787,0 15.8934,6.07 15.8934,13.558 z"
       fill="#662113"
       id="path6" />
    <path
       d="m 73.536,258.891 c -5.12,0.586 -8.448,4 -10.848,7.776 -3.2747,5.173 -10.7413,10.666 -20.0213,10.666 -11.776,0 -21.3334,-7.157 -21.3334,-16 0,-8.842 9.5574,-16 21.3334,-16 v -21.29 c -23.1147,0.224 -41.781355,16.8 -41.781355,37.29 0,20.63 18.901355,37.334 42.218655,37.334 19.776,0 35.7013,-11.147 41.6107,-27.403 2.9546,-8.096 -5.0027,-13.056 -11.1787,-12.373 z"
       fill="url(#paint2_linear_5_50)"
       id="path7"
       style="fill:url(#paint2_linear_5_50)" />
    <path
       d="m 91.1147,181.109 c 0,7.488 -7.1147,13.558 -15.8934,13.558 -8.768,0 -15.8826,-6.07 -15.8826,-13.558 0,-7.477 7.1146,-13.557 15.8826,-13.557 8.7787,0 15.8934,6.069 15.8934,13.557 z"
       fill="#662113"
       id="path8" />
    <path
       d="m 73.536,173.557 c -5.12,0.587 -8.448,4 -10.848,7.776 C 59.4133,186.507 51.9467,192 42.6667,192 c -11.776,0 -21.3334,-7.157 -21.3334,-16 0,-8.843 9.5574,-16 21.3334,-16 V 138.709 C 19.552,138.933 0.885345,155.509 0.885345,176 c 0,20.629 18.901355,37.333 42.218655,37.333 19.776,0 35.7013,-11.146 41.6107,-27.402 2.9546,-8.096 -5.0027,-13.056 -11.1787,-12.374 z"
       fill="url(#paint3_linear_5_50)"
       id="path9"
       style="fill:url(#paint3_linear_5_50)" />
    <path
       d="m 91.1147,95.776 c 0,7.488 -7.1147,13.557 -15.8934,13.557 -8.768,0 -15.8826,-6.069 -15.8826,-13.557 0,-7.4773 7.1146,-13.5573 15.8826,-13.5573 8.7787,0 15.8934,6.0693 15.8934,13.5573 z"
       fill="#662113"
       id="path10" />
    <path
       d="m 73.536,88.224 c -5.12,0.5867 -8.448,4 -10.848,7.776 -3.2747,5.173 -10.7413,10.667 -20.0213,10.667 -11.776,0 -21.3334,-7.1577 -21.3334,-16.0003 0,-8.8427 9.5574,-16 21.3334,-16 V 53.376 C 19.5627,53.5893 0.885345,70.176 0.885345,90.6667 0.885345,111.296 19.7867,128 43.104,128 62.88,128 78.8053,116.853 84.7147,100.597 87.6693,92.5013 79.712,87.5413 73.536,88.224 Z"
       fill="url(#paint4_linear_5_50)"
       id="path11"
       style="fill:url(#paint4_linear_5_50)" />
    <path
       d="m 214,225.771 c -88.504,0 -160.2439,-2.125 -160.2439,60.699 0,62.796 71.7399,77.086 160.2439,77.086 88.504,0 160.244,-14.29 160.244,-77.086 0,-62.815 -71.74,-60.699 -160.244,-60.699 z"
       fill="#d99e82"
       id="path12" />
    <path
       d="m 369.55,230.54 c 0,0 -77.624,-9.293 -155.55,-9.69 -77.926,0.397 -155.55,9.69 -155.55,9.69 -7.6783,61.143 56.072,86.332 155.55,86.332 99.478,0 163.228,-25.189 155.55,-86.332 z"
       fill="#662113"
       id="path13" />
    <path
       d="m 364.034,206.098 -300.8523,6.101 c -10.3889,0 -19.0873,21.052 -8.0656,26.558 82.2419,25.575 148.3529,51.453 148.3529,51.453 9.086,5.024 12.155,5.043 21.25,0.028 0,0 91.29,-36.531 149.931,-51.878 8.321,-2.172 -0.236,-32.262 -10.616,-32.262 z"
       fill="#ffcc4d"
       id="path14" />
    <path
       d="m 371.958,206.891 c -17.944,-16.537 -16.905,-7.735 -30.656,-11.617 -5.223,-1.473 -42.595,-49.781 -127.774,-49.781 h -0.189 c -85.18,0 -122.5512,48.308 -127.774,49.781 -13.7511,3.882 -12.7122,-4.92 -30.6567,11.617 -8.2355,7.593 -10.4644,11.541 -1.7755,13.506 13.09,2.956 11.9,10.88 21.2783,13.637 11.3522,3.334 16.0178,-2.757 34.3209,-0.264 15.612,2.125 16.632,22.374 32.385,22.374 15.754,0 15.754,-7.556 31.497,-7.556 15.744,0 25.057,20.268 40.81,20.268 15.753,0 25.056,-20.268 40.809,-20.268 15.754,0 15.754,7.556 31.498,7.556 15.753,0 16.773,-20.249 32.385,-22.374 18.303,-2.484 22.978,3.598 34.321,0.264 9.378,-2.757 8.188,-10.672 21.278,-13.637 8.708,-1.955 6.488,-5.913 -1.757,-13.506 z"
       fill="#77b255"
       id="path15" />
    <path
       d="m 365.838,189.022 c 0,28.182 -67.981,41.49 -151.838,41.49 -83.857,0 -151.8383,-13.308 -151.8383,-41.49 0,-51.028 9.1233,-51.028 151.8383,-51.028 142.715,0 151.838,0.009 151.838,51.028 z"
       fill="#dd2e44"
       id="path16" />
    <path
       d="m 214,37.9489 c -88.504,0 -160.2439,41.4705 -160.2439,104.2851 0,57.848 71.7399,60.209 160.2439,60.209 88.504,0 160.244,-2.361 160.244,-60.209 C 374.244,79.41 302.504,37.9489 214,37.9489 Z"
       fill="#d99e82"
       id="path17" />
    <path
       d="m 145.849,67.8972 c -4.703,-3.0128 -10.946,-1.6339 -13.95,3.0695 -3.003,4.7033 -1.633,10.9555 3.07,13.9494 4.703,3.0128 16.622,5.2606 19.635,0.5572 3.003,-4.7033 -4.052,-14.5727 -8.755,-17.5761 z m 91.932,-9.775 c -5.308,1.7189 -14.629,9.5011 -12.901,14.8089 1.728,5.3078 13.827,6.12 19.134,4.4011 5.308,-1.7189 8.208,-7.4233 6.479,-12.7311 -1.719,-5.2983 -7.423,-8.2072 -12.712,-6.4789 z m 103.03,66.4418 c -4.269,-3.589 -14.97,2.125 -18.568,6.394 -3.589,4.278 -3.032,10.644 1.237,14.233 4.269,3.588 10.644,3.031 14.233,-1.238 3.598,-4.278 7.376,-15.8 3.098,-19.389 z M 306.404,77.3417 c -4.703,-3.0034 -10.946,-1.6245 -13.958,3.0789 -3.004,4.7033 -1.625,10.9461 3.078,13.9494 4.704,3.0128 16.623,5.2606 19.626,0.5572 3.013,-4.7128 -4.042,-14.5822 -8.746,-17.5855 z M 164.738,143.453 c -4.704,-3.004 -10.946,-1.625 -13.959,3.079 -3.003,4.694 -1.625,10.946 3.079,13.94 4.703,3.012 16.622,5.27 19.625,0.557 3.013,-4.703 -4.042,-14.573 -8.745,-17.576 z m 28.768,-45.4091 c -3.174,4.5901 -5.856,16.4241 -1.257,19.5971 4.59,3.173 14.705,-3.532 17.879,-8.122 3.173,-4.59 2.011,-10.8801 -2.579,-14.0534 -4.58,-3.1734 -10.88,-2.0117 -14.043,2.5783 z m 75.121,45.4091 c -4.704,-3.004 -10.946,-1.625 -13.959,3.079 -3.004,4.694 -1.625,10.955 3.079,13.94 4.703,3.012 16.622,5.27 19.625,0.557 3.013,-4.703 -4.042,-14.573 -8.745,-17.576 z M 90.7311,106.742 c -3.7211,4.165 -7.8672,15.565 -3.7022,19.286 4.1461,3.721 15.0261,-1.644 18.7471,-5.809 3.731,-4.155 3.372,-10.54 -0.784,-14.27 -4.146,-3.721 -10.5398,-3.362 -14.2609,0.793 z"
       fill="#ffe8b6"
       id="path18" />
  </g>
  <path
     d="m 281.58883,281.41119 c 0,14.10803 -11.43829,25.5463 -25.54573,25.5463 H 134.69889 c -14.10786,0 -25.54614,-11.43827 -25.54614,-25.5463 V 140.90797 c 0,-14.10803 11.43828,-25.54629 25.54614,-25.54629 H 256.0431 c 14.10744,0 25.54573,11.43826 25.54573,25.54629 z"
     fill="#3b88c3"
     id="path19"
     style="stroke-width:0.598737" />
  <path
     d="m 268.81596,281.41119 c 0,14.10803 -11.43829,25.5463 -25.54631,25.5463 H 134.69889 c -14.10786,0 -25.54614,-11.43827 -25.54614,-25.5463 V 153.68084 c 0,-14.10804 11.43828,-25.54614 25.54614,-25.54614 h 110.71064 c 14.10743,0 23.40643,9.29881 23.40643,23.40686 z"
     fill="url(#paint5_linear_5_50)"
     id="path20"
     style="fill:url(#paint5_linear_5_50);stroke-width:0.598737" />
  <path
     d="m 134.69889,115.36168 c -10.78045,0 -11.05509,-12.27489 -6.38649,-17.562938 5.31356,-6.009763 13.57133,-7.9832 28.34335,-7.9832 h 9.97556 V 77.042507 h -17.36456 c -25.34831,0 -46.50048,15.96634 -46.50048,34.327563 v 170.04112 c 0,14.10803 11.43827,25.5463 25.54613,25.5463 h 12.77321 V 115.36168 Z"
     fill="#226699"
     id="path21"
     style="stroke-width:0.598737" />
  <defs
     id="defs33">
    <linearGradient
       id="paint0_linear_5_50"
       x1="213.333"
       y1="21.3295"
       x2="213.333"
       y2="362.667"
       gradientUnits="userSpaceOnUse">
      <stop
         stop-color="#CCD6DD"
         id="stop21" />
      <stop
         offset="1"
         stop-color="#CCD6DD"
         stop-opacity="0"
         id="stop22" />
    </linearGradient>
    <linearGradient
       id="paint1_linear_5_50"
       x1="43.118"
       y1="309.376"
       x2="43.118"
       y2="384"
       gradientUnits="userSpaceOnUse">
      <stop
         stop-color="#66757F"
         id="stop23" />
      <stop
         offset="1"
         stop-color="#50585C"
         id="stop24" />
      <stop
         offset="1"
         stop-color="#50585C"
         id="stop25" />
    </linearGradient>
    <linearGradient
       id="paint2_linear_5_50"
       x1="43.118"
       y1="224.043"
       x2="43.118"
       y2="298.667"
       gradientUnits="userSpaceOnUse">
      <stop
         stop-color="#66757F"
         id="stop26" />
      <stop
         offset="1"
         stop-color="#50585C"
         id="stop27" />
    </linearGradient>
    <linearGradient
       id="paint3_linear_5_50"
       x1="43.118"
       y1="138.709"
       x2="43.118"
       y2="213.333"
       gradientUnits="userSpaceOnUse">
      <stop
         stop-color="#66757F"
         id="stop28" />
      <stop
         offset="1"
         stop-color="#50585C"
         id="stop29" />
    </linearGradient>
    <linearGradient
       id="paint4_linear_5_50"
       x1="43.118"
       y1="53.376"
       x2="43.118"
       y2="128"
       gradientUnits="userSpaceOnUse">
      <stop
         stop-color="#66757F"
         id="stop30" />
      <stop
         offset="1"
         stop-color="#50585C"
         id="stop31" />
    </linearGradient>
    <linearGradient
       id="paint5_linear_5_50"
       x1="186.667"
       y1="85.3333"
       x2="186.667"
       y2="384"
       gradientUnits="userSpaceOnUse"
       gradientTransform="matrix(0.59873694,0,0,0.59873694,77.220137,77.042507)">
      <stop
         stop-color="#55ACEE"
         id="stop32" />
      <stop
         offset="1"
         stop-color="#55ACEE"
         stop-opacity="0"
         id="stop33" />
    </linearGradient>
    <clipPath
       id="clip0_5_50">
      <rect
         width="384"
         height="384"
         fill="white"
         id="rect33" />
    </clipPath>
  </defs>
</svg>
